<svg width="1440" height="1024" viewBox="0 0 1440 1024" fill="none" xmlns="http://www.w3.org/2000/svg">
<rect width="1440" height="1024" fill="black"/>
<rect x="425" y="222" width="532" height="579" fill="white"/>
<path d="M415 512V838H720H1025V512V186H720H415V512ZM735.982 347.566C754.038 356.694 771.606 363.866 783.44 366.865C788.076 368.038 791.98 369.342 791.98 369.734C791.98 370.125 790.638 371.559 789.052 372.733C786.246 374.95 785.636 374.819 775.876 371.82C763.188 367.908 747.938 361.388 733.42 353.564C727.32 350.304 721.586 347.696 720.732 347.696C719.878 347.696 713.412 350.565 706.336 354.086C689.5 362.562 676.812 367.908 664.246 371.82L653.876 375.08L650.826 372.472C647.288 369.603 646.678 369.994 660.83 365.822C673.274 362.301 691.574 354.607 707.19 346.392C713.9 343.002 719.756 340.002 720.122 340.002C720.488 339.872 727.686 343.262 735.982 347.566ZM633.258 371.95C647.776 385.251 650.826 391.902 636.796 379.514C626.548 370.516 624.596 368.43 622.278 364.257C620.204 360.345 622.156 361.779 633.258 371.95ZM816.746 365.952C814.916 369.342 811.378 372.733 795.884 386.034L792.956 388.511L794.542 385.121C796.006 382.252 816.746 362.04 818.332 362.04C818.698 362.04 817.966 363.735 816.746 365.952ZM636.186 392.945C641.92 396.074 639.114 396.335 630.94 393.336C620.448 389.554 613.25 385.773 610.688 382.774C609.102 380.818 611.42 381.47 620.692 385.642C627.28 388.642 634.356 391.902 636.186 392.945ZM828.58 383.556C827.116 385.251 821.626 388.381 816.502 390.467C795.274 399.074 795.274 396.596 816.502 386.946C824.188 383.426 830.654 380.426 830.898 380.426C831.264 380.296 830.166 381.73 828.58 383.556ZM625.816 400.378C633.502 402.073 640.334 404.159 641.066 404.942C642.896 406.898 641.798 406.898 627.158 403.768C620.204 402.334 613.128 400.117 611.054 398.552C608.614 396.857 608.126 396.074 609.59 396.466C610.932 396.857 618.252 398.552 625.816 400.378ZM828.946 398.682C825.774 400.769 803.814 406.506 798.934 406.376C794.786 406.246 803.936 402.725 816.38 399.726C833.826 395.422 833.704 395.422 828.946 398.682ZM667.54 410.288C671.2 415.895 669.736 415.113 665.588 409.375C663.758 406.767 662.782 405.072 663.636 405.594C664.368 405.985 666.198 408.202 667.54 410.288ZM774.9 408.984C773.436 411.07 771.972 412.896 771.728 412.896C770.874 412.896 772.338 410.288 774.656 407.289C777.584 403.768 777.706 404.681 774.9 408.984ZM635.82 415.634C638.504 417.46 610.322 416.286 606.54 414.33C604.1 413.157 606.662 413.026 618.74 413.678C627.036 414.07 634.722 414.982 635.82 415.634ZM833.46 414.461C829.678 416.156 801.984 417.59 803.326 416.026C804.546 414.591 816.014 413.287 827.97 413.157C835.046 413.026 836.022 413.287 833.46 414.461ZM783.074 416.286C782.708 416.678 781.61 416.808 780.756 416.417C779.78 416.026 780.146 415.634 781.488 415.634C782.83 415.504 783.562 415.895 783.074 416.286ZM663.27 420.72C663.636 421.502 663.148 421.633 662.172 421.242C659.976 420.329 659.61 419.416 661.318 419.416C662.05 419.416 662.904 419.938 663.27 420.72ZM779.78 419.938C779.78 420.198 778.926 420.85 777.828 421.242C776.852 421.633 776.364 421.502 776.73 420.72C777.462 419.416 779.78 418.894 779.78 419.938ZM693.77 441.454C693.526 441.714 692.184 439.889 690.842 437.542C689.134 434.542 688.28 431.022 688.402 426.588V420.068L691.33 430.5C692.916 436.238 694.014 441.193 693.77 441.454ZM751.72 427.501C751.72 432.456 747.572 442.888 746.23 441.323C745.742 440.932 750.866 422.024 751.476 422.024C751.598 422.024 751.72 424.502 751.72 427.501ZM665.588 425.414C666.198 427.24 666.076 427.37 664.49 425.936C662.416 424.11 662.172 423.328 663.758 423.328C664.368 423.328 665.222 424.241 665.588 425.414ZM777.34 423.85C777.34 424.11 776.364 425.154 775.266 426.066C773.314 427.762 773.192 427.631 774.778 425.545C776.364 423.458 777.34 422.806 777.34 423.85ZM633.38 427.11C630.818 428.674 609.956 429.978 605.076 428.935C601.172 428.022 601.172 428.022 604.1 427.11C608.492 425.806 635.576 425.806 633.38 427.11ZM835.9 427.11C838.828 428.022 838.828 428.022 834.924 428.935C830.044 429.978 809.182 428.674 806.62 427.11C804.424 425.806 831.508 425.806 835.9 427.11ZM711.338 438.715C712.07 440.41 712.68 443.018 712.68 444.583C712.558 447.322 712.436 447.191 709.508 443.54C705.116 438.063 701.7 432.065 701.7 430.109C701.7 427.762 709.508 434.803 711.338 438.715ZM737.69 432.586C737.324 434.282 734.762 438.324 732.2 441.584C727.442 447.452 727.442 447.452 727.32 443.801C727.32 441.323 728.906 438.324 732.322 434.412C737.812 428.022 738.91 427.762 737.69 432.586ZM685.352 438.715C684.376 439.628 682.424 437.802 679.618 433.369L676.934 429.196L681.326 433.63C683.766 436.107 685.596 438.454 685.352 438.715ZM760.26 434.151C760.26 434.412 758.796 435.977 757.088 437.802C754.038 440.671 753.916 440.802 755.258 438.063C756.356 435.716 757.576 434.673 760.016 433.89C760.138 433.76 760.26 433.89 760.26 434.151ZM638.016 437.411C639.724 438.585 621.18 441.584 612.152 441.584C602.27 441.584 606.174 439.367 618.496 438.063C634.722 436.368 636.186 436.238 638.016 437.411ZM824.066 438.454C834.314 439.367 836.876 441.584 827.848 441.584C818.454 441.584 800.276 438.585 801.984 437.411C802.838 436.759 806.01 436.498 809.06 436.89C812.11 437.281 818.82 437.933 824.066 438.454ZM688.28 446.409C688.28 447.322 681.448 441.845 679.618 439.367C678.642 438.194 680.228 439.106 683.156 441.584C685.962 443.931 688.28 446.148 688.28 446.409ZM760.26 439.367C760.26 439.628 759.04 440.932 757.576 442.366L754.77 444.844L757.088 441.845C759.284 439.106 760.26 438.324 760.26 439.367ZM664.49 446.8C661.196 448.365 659.244 448.365 661.44 446.8C662.416 446.148 664.124 445.626 665.1 445.626C666.32 445.626 666.076 446.018 664.49 446.8ZM778.56 446.8C780.756 448.365 778.804 448.365 775.51 446.8C773.924 446.018 773.68 445.626 774.9 445.626C775.876 445.626 777.584 446.148 778.56 446.8ZM631.55 449.538C627.524 450.973 621.18 452.407 617.52 452.668L610.81 453.32L620.57 450.19C625.938 448.495 632.282 447.061 634.6 447.061C638.382 447.061 638.016 447.322 631.55 449.538ZM819.43 450.06C827.36 452.538 828.336 453.059 824.92 453.19C822.602 453.32 816.502 451.886 811.5 450.19C799.178 446.018 806.01 445.887 819.43 450.06ZM714.632 450.973L716.95 453.972L713.9 451.364C712.192 449.93 710.606 448.626 710.362 448.495C710.118 448.234 710.362 448.104 711.094 448.104C711.704 448.104 713.29 449.408 714.632 450.973ZM729.76 448.626C729.76 448.886 728.296 450.19 726.466 451.364L723.05 453.711L725.368 450.973C727.442 448.365 729.76 447.191 729.76 448.626ZM755.38 448.756C755.38 449.017 754.16 449.93 752.696 450.712C750.012 452.146 750.012 452.016 752.208 450.19C754.77 447.974 755.38 447.713 755.38 448.756ZM690.11 451.755C689.744 452.146 688.768 451.755 687.914 450.842C686.816 449.538 686.938 449.408 688.646 450.19C689.866 450.582 690.476 451.364 690.11 451.755ZM689.5 455.406C689.5 455.667 688.402 455.406 687.06 454.624C685.718 453.842 684.62 452.929 684.62 452.538C684.62 452.277 685.718 452.538 687.06 453.32C688.402 454.102 689.5 455.015 689.5 455.406ZM755.38 452.668C755.38 452.929 754.16 453.842 752.696 454.624C750.012 456.058 750.012 455.928 752.208 454.102C754.77 451.886 755.38 451.625 755.38 452.668ZM713.29 456.319C715.242 456.971 715.12 456.971 712.802 456.841C711.094 456.71 709.63 455.667 709.386 454.624C709.02 453.32 709.142 453.19 709.874 454.102C710.362 455.015 711.948 455.928 713.29 456.319ZM672.298 455.146C672.054 455.406 670.468 456.319 668.76 457.102C665.832 458.536 665.832 458.536 668.028 456.71C669.98 455.015 674.006 453.581 672.298 455.146ZM730.37 455.928C730.004 456.58 728.418 457.232 726.954 457.102C724.514 456.971 724.514 456.841 727.32 455.928C729.028 455.406 730.492 454.885 730.736 454.754C730.98 454.624 730.736 455.146 730.37 455.928ZM771.972 456.71C774.168 458.536 774.168 458.536 771.24 457.102C767.458 455.276 766.848 454.624 768.312 454.624C769.044 454.624 770.63 455.537 771.972 456.71ZM639.48 456.58C639.48 458.014 621.912 466.49 619.594 466.099C617.764 465.838 620.204 464.143 627.28 460.883C637.894 456.058 639.48 455.406 639.48 456.58ZM813.33 461.274C820.04 464.274 822.236 465.838 820.406 466.099C818.942 466.36 814.55 464.795 810.646 462.578C796.25 454.624 797.348 454.102 813.33 461.274ZM690.72 459.84C691.696 460.492 692.062 461.144 691.33 461.144C690.72 461.144 689.256 460.492 688.28 459.84C687.304 459.188 687.06 458.536 687.67 458.536C688.402 458.536 689.744 459.188 690.72 459.84ZM752.94 459.058C752.94 459.318 752.086 459.97 750.988 460.362C750.012 460.753 749.524 460.622 749.89 459.84C750.622 458.536 752.94 458.014 752.94 459.058ZM768.8 464.274C769.898 466.23 769.166 465.838 766.482 463.23C764.408 461.014 762.7 459.188 762.7 458.927C762.7 457.754 767.458 461.926 768.8 464.274ZM676.08 460.231C676.08 460.492 674.86 461.796 673.396 463.23L670.59 465.708L672.908 462.709C675.104 459.97 676.08 459.188 676.08 460.231ZM644.36 461.666C644.36 462.448 630.086 471.315 627.036 472.228C622.4 473.793 625.816 470.924 634.966 465.838C643.262 461.144 644.36 460.753 644.36 461.666ZM722.074 463.23C722.196 463.882 721.83 465.317 721.22 466.36C720.122 468.055 719.878 468.055 718.902 466.49C718.292 465.447 718.048 463.882 718.414 462.839C719.146 460.883 721.464 461.144 722.074 463.23ZM810.28 468.838C813.94 471.054 816.136 472.88 815.16 472.88C813.208 472.88 795.64 462.839 795.64 461.796C795.64 460.753 803.082 464.274 810.28 468.838ZM766.116 469.62C765.75 470.011 765.018 469.359 764.652 468.055C763.92 466.23 764.042 466.099 765.262 467.273C766.116 468.186 766.482 469.229 766.116 469.62ZM644.238 471.054C637.772 476.14 632.038 479.791 631.428 479.139C630.818 478.357 645.702 467.664 647.288 467.664C648.02 467.664 646.556 469.229 644.238 471.054ZM801.374 473.01C805.644 476.01 809.06 478.618 809.06 478.748C809.06 480.052 803.814 477.183 798.08 472.75C789.296 466.099 791.492 466.23 801.374 473.01ZM727.442 474.575C726.222 475.749 726.1 475.618 726.832 473.793C727.198 472.489 727.93 471.837 728.296 472.228C728.662 472.619 728.296 473.662 727.442 474.575ZM763.554 474.445C763.188 475.488 762.822 475.097 762.822 473.662C762.7 472.228 763.066 471.446 763.432 471.967C763.798 472.358 763.92 473.532 763.554 474.445ZM676.934 475.749C676.568 476.792 676.202 476.401 676.202 474.966C676.08 473.532 676.446 472.75 676.812 473.271C677.178 473.662 677.3 474.836 676.934 475.749ZM646.8 478.226C642.652 482.008 633.99 487.615 636.43 484.877C639.114 481.878 648.752 474.314 649.85 474.314C650.582 474.314 649.118 476.01 646.8 478.226ZM797.47 479.53C801.13 482.53 804.18 485.138 804.18 485.398C804.18 486.572 797.348 482.008 793.2 478.226C786.856 472.358 789.784 473.402 797.47 479.53ZM680.594 478.357C680.228 479.4 679.862 479.009 679.862 477.574C679.74 476.14 680.106 475.358 680.472 475.879C680.838 476.27 680.96 477.444 680.594 478.357ZM652.29 482.921C646.556 488.267 642.042 491.658 641.432 491.006C640.822 490.354 655.218 478.096 656.316 478.096C656.804 478.226 654.974 480.313 652.29 482.921ZM791.98 484.355C799.666 490.745 800.52 491.788 796.25 489.441C794.298 488.267 790.394 485.268 787.71 482.66C781.854 476.922 784.294 477.966 791.98 484.355ZM826.75 482.921C824.432 496.874 814.794 523.345 804.424 544.861C804.18 545.513 808.45 545.904 813.94 545.904C823.7 545.904 823.822 545.904 822.968 548.773C822.602 550.468 821.626 551.902 821.138 552.163C820.528 552.424 820.04 563.638 820.04 577.2C820.04 590.762 820.528 601.976 821.138 602.237C821.626 602.367 822.602 603.932 822.968 605.497L823.822 608.496H803.204H782.586L783.196 605.236C783.44 603.41 784.172 601.976 784.782 601.976C785.392 601.976 785.88 595.978 785.88 588.675V575.374L777.34 585.154L768.922 594.804L768.8 590.11C768.8 586.719 769.654 584.633 771.972 582.286C773.68 580.59 777.584 575.766 780.512 571.593C784.904 565.203 785.88 562.986 785.88 558.162C785.88 555.032 785.392 552.424 784.782 552.424C784.172 552.424 783.44 550.99 783.196 549.164C782.586 546.165 782.83 546.034 790.028 545.643L797.47 545.252L803.57 532.212C806.986 525.04 811.5 513.043 813.818 505.48C819.552 485.79 819.918 485.138 823.212 483.442C824.798 482.66 826.14 481.617 826.018 481.095C825.774 479.27 826.14 478.096 826.872 478.096C827.238 478.096 827.238 480.313 826.75 482.921ZM710.362 482.921C711.948 485.007 711.826 485.138 709.996 483.442C707.922 481.747 707.312 480.704 708.288 480.704C708.532 480.704 709.508 481.747 710.362 482.921ZM618.008 483.964C619.472 485.138 622.522 492.831 625.694 503.133C632.648 525.953 640.456 543.035 645.824 547.208L649.85 550.468V577.2C649.85 610.582 651.314 608.496 628.744 608.496H612.762L614.592 604.845C617.032 599.759 617.032 554.641 614.592 549.425L612.762 545.904H624.718H636.674L630.696 533.255C627.524 526.214 622.644 513.434 620.082 504.828C612.884 480.965 612.762 479.791 618.008 483.964ZM657.658 486.702C655.462 489.31 652.412 491.918 651.07 492.701C649.728 493.483 651.07 491.397 654.12 488.006C657.048 484.746 660.098 482.008 660.708 482.008C661.318 482.008 659.976 484.094 657.658 486.702ZM785.88 488.006C788.93 491.397 790.272 493.483 788.93 492.701C785.758 491.006 777.706 482.008 779.292 482.008C779.902 482.008 782.952 484.746 785.88 488.006ZM665.1 486.311C665.1 486.572 662.782 489.05 659.976 491.788L654.852 497.004L658.878 491.397C662.172 486.963 665.1 484.486 665.1 486.311ZM667.54 491.136C665.466 494.005 663.026 496.743 662.294 497.265C660.952 498.047 662.782 495.309 668.028 488.789C672.054 483.964 671.688 485.529 667.54 491.136ZM723.782 488.919C722.562 490.093 722.44 489.962 723.172 488.137C723.538 486.833 724.27 486.181 724.636 486.572C725.002 486.963 724.636 488.006 723.782 488.919ZM775.144 492.701C777.34 495.7 778.56 497.786 777.706 497.265C776.974 496.743 774.534 493.874 772.216 490.875C770.02 487.876 768.8 485.79 769.654 486.311C770.386 486.833 772.826 489.702 775.144 492.701ZM784.05 494.787C783.196 495.7 778.56 491.136 777.096 487.876C776.242 486.311 777.462 486.963 780.268 489.702C782.586 492.179 784.416 494.526 784.05 494.787ZM672.42 493.744C670.346 496.613 668.272 498.96 667.906 498.96C667.662 498.96 669.126 496.613 671.2 493.744C673.274 490.875 675.348 488.528 675.714 488.528C675.958 488.528 674.494 490.875 672.42 493.744ZM683.766 492.57C682.546 494.787 680.838 497.265 679.862 498.047C678.886 498.96 679.618 497.134 681.57 494.005C685.474 487.615 687.06 486.572 683.766 492.57ZM688.28 493.744C686.938 496.613 685.474 498.96 685.23 498.96C684.864 498.96 685.718 496.613 687.06 493.744C688.402 490.875 689.866 488.528 690.11 488.528C690.476 488.528 689.622 490.875 688.28 493.744ZM759.406 494.918C762.7 500.916 761.114 499.873 757.21 493.353C755.258 490.354 754.526 488.528 755.502 489.441C756.478 490.223 758.186 492.701 759.406 494.918ZM761.602 490.745C763.188 492.831 763.066 492.962 761.236 491.266C759.162 489.571 758.552 488.528 759.528 488.528C759.772 488.528 760.748 489.571 761.602 490.745ZM770.142 495.309C773.924 501.046 771.972 499.612 767.458 493.353C765.14 490.354 764.286 488.658 765.506 489.702C766.726 490.745 768.8 493.222 770.142 495.309ZM693.282 493.353C691.818 495.961 691.574 495.178 692.672 491.788C693.16 490.614 693.77 489.962 694.014 490.354C694.38 490.614 694.014 492.049 693.282 493.353ZM678.52 492.831C678.52 493.092 677.3 494.396 675.836 495.83L673.03 498.308L675.348 495.309C677.544 492.57 678.52 491.788 678.52 492.831ZM754.038 496.352C755.38 499.482 755.38 499.482 753.672 497.134C752.574 495.7 751.72 494.005 751.72 493.222C751.72 491.658 752.33 492.31 754.038 496.352ZM765.262 495.961C766.848 498.047 766.726 498.178 764.896 496.482C762.822 494.787 762.212 493.744 763.188 493.744C763.432 493.744 764.408 494.787 765.262 495.961ZM678.52 510.566C678.52 511.348 678.032 512.261 677.3 512.652C676.69 513.043 676.08 512.522 676.08 511.478C676.08 510.305 676.69 509.392 677.3 509.392C678.032 509.392 678.52 509.914 678.52 510.566ZM764.408 511.478C765.628 514.738 764.286 515.26 762.7 512.13C761.968 510.566 761.846 509.392 762.578 509.392C763.188 509.392 764.042 510.305 764.408 511.478ZM684.254 515.521C683.888 516.825 683.644 516.042 683.644 513.956C683.644 511.739 683.888 510.826 684.254 511.609C684.498 512.522 684.498 514.347 684.254 515.521ZM756.234 515.521C755.868 516.825 755.624 516.042 755.624 513.956C755.624 511.739 755.868 510.826 756.234 511.609C756.478 512.522 756.478 514.347 756.234 515.521ZM691.086 516.042C691.574 518.129 691.452 518.39 689.988 517.086C688.036 515.39 687.67 513.304 689.378 513.304C689.988 513.304 690.72 514.478 691.086 516.042ZM750.012 516.955C747.816 519.042 747.816 519.042 749.28 516.173C750.012 514.478 750.988 513.434 751.476 513.826C751.842 514.347 751.232 515.651 750.012 516.955ZM688.524 549.164C688.28 550.99 687.548 552.424 686.938 552.424C686.328 552.424 685.84 555.945 685.84 560.378C685.84 569.246 685.84 569.246 677.422 563.508C673.396 560.9 672.42 559.466 672.42 556.336C672.42 554.119 671.932 552.424 671.2 552.424C670.468 552.424 669.98 556.075 669.98 560.9V569.376H673.518C676.812 569.376 677.3 569.898 678.154 574.853L679.252 580.46L674.616 580.851L669.98 581.242V591.674C669.98 598.325 670.468 601.846 671.2 601.324C671.932 600.933 672.42 597.673 672.42 594.152C672.42 588.936 672.786 587.893 674.25 588.414C675.226 588.806 678.032 588.023 680.35 586.458C682.79 584.894 684.986 583.72 685.352 583.72C685.596 583.72 685.84 587.762 685.84 592.848C685.84 597.803 686.328 601.976 686.938 601.976C687.548 601.976 688.28 603.15 688.646 604.454C689.5 607.974 693.526 606.67 695.234 602.237C697.308 597.151 705.116 553.206 704.14 552.424C703.652 552.033 702.92 550.468 702.432 548.773C701.578 545.904 701.578 545.904 714.388 545.904H727.076L725.368 549.686C723.66 553.206 723.904 555.554 727.808 577.33C730.248 590.501 732.688 601.454 733.176 601.846C733.786 602.237 734.518 603.932 734.884 605.497C735.616 608.366 735.372 608.496 726.71 608.496C717.926 608.496 717.926 608.496 718.536 605.236C718.78 603.41 719.512 601.976 720.122 601.976C720.732 601.976 720.976 601.194 720.732 600.281C720.366 599.498 719.878 596.89 719.39 594.804L718.536 590.892L716.34 596.63L714.266 602.498L712.802 597.673C711.948 595.065 710.85 592.848 710.24 592.848C709.02 592.848 707.8 601.063 709.02 601.976C709.508 602.367 710.118 603.932 710.484 605.497C711.216 608.366 710.972 608.496 703.408 608.496C695.478 608.496 693.77 609.539 697.918 611.756C699.138 612.538 704.262 615.538 709.142 618.537C714.144 621.666 719.024 624.144 720 624.144C724.27 624.144 749.28 606.67 749.28 603.802C749.28 602.889 750.134 601.976 751.11 601.454C752.696 600.933 752.94 596.89 752.94 577.33C752.94 554.38 751.964 548.251 749.28 555.554C748.67 557.379 747.572 558.944 746.962 558.944C746.352 558.944 745.01 559.335 743.912 559.726C742.326 560.378 741.96 559.596 741.96 556.466C741.96 554.25 741.472 552.424 740.862 552.424C740.252 552.424 739.52 550.99 739.276 549.164L738.666 545.904H759.284H779.902L779.048 548.773C778.682 550.468 777.706 551.902 777.218 552.163C776.608 552.424 776.12 554.38 776.12 556.597C776.12 559.596 775.632 560.378 774.168 559.726C773.07 559.335 771.728 558.944 771.118 558.944C770.508 558.944 769.41 557.379 768.8 555.554C768.068 553.728 766.97 552.685 766.238 553.076C764.408 554.38 765.262 601.976 767.092 601.976C767.946 601.976 768.8 603.41 769.044 605.236C769.654 608.496 769.532 608.496 761.48 608.496C754.77 608.496 752.94 609.018 750.988 611.234C747.938 614.886 730.248 627.274 724.392 629.882C720.122 631.838 719.512 631.707 714.754 629.099C702.432 622.449 687.914 611.104 691.818 611.104C692.672 611.104 692.916 610.452 692.55 609.8C692.062 609.018 684.01 608.496 672.542 608.496H653.266L653.876 605.236C654.12 603.41 654.852 601.976 655.462 601.976C656.072 601.976 656.56 596.238 656.56 589.197C656.56 578.634 656.072 576.026 654.12 573.288C652.778 571.462 651.68 568.072 651.802 565.464V560.9L654.12 564.03L656.56 567.029V559.726C656.56 555.684 656.072 552.424 655.462 552.424C654.852 552.424 654.12 550.99 653.876 549.164L653.266 545.904H671.2H689.134L688.524 549.164ZM569.94 665.872C571.77 669.523 569.452 673.696 565.67 673.696C562.986 673.696 562.62 673.174 562.62 668.48C562.62 663.786 562.986 663.264 565.67 663.264C567.378 663.264 569.208 664.307 569.94 665.872ZM580.92 664.568C580.92 665.22 579.7 666.002 578.236 666.002C575.918 666.133 575.918 666.263 577.626 666.785C579.822 667.437 579.822 667.437 577.626 669.262C575.552 670.958 575.552 670.958 578.236 671.088C579.7 671.088 580.92 671.61 580.92 672.392C580.92 673.044 579.334 673.696 577.26 673.696C573.844 673.696 573.6 673.435 573.6 668.48C573.6 663.525 573.844 663.264 577.26 663.264C579.334 663.264 580.92 663.786 580.92 664.568ZM590.68 664.568C590.68 665.22 590.192 665.872 589.46 665.872C588.85 665.872 588.24 667.567 588.24 669.784C588.24 671.87 587.752 673.696 587.02 673.696C586.41 673.696 585.8 671.87 585.8 669.784C585.8 667.567 585.312 665.872 584.58 665.872C583.97 665.872 583.36 665.22 583.36 664.568C583.36 663.786 585.068 663.264 587.02 663.264C589.094 663.264 590.68 663.786 590.68 664.568ZM600.44 664.568C600.44 665.22 599.464 665.872 598.366 666.002C596.536 666.002 596.536 666.263 598.61 667.176C600.684 668.089 600.684 668.35 598.976 668.35C596.414 668.48 596.048 671.088 598.488 671.088C599.464 671.088 600.684 671.61 601.05 672.392C601.538 673.174 600.196 673.696 598.122 673.696C594.584 673.696 594.34 673.435 594.34 668.48C594.34 663.786 594.706 663.264 597.39 663.264C599.098 663.264 600.44 663.786 600.44 664.568ZM611.908 665.22C612.396 666.785 611.908 667.046 609.59 666.394C607.028 665.742 606.54 666.002 606.54 668.48C606.54 670.958 607.028 671.218 609.59 670.566C611.908 669.914 612.396 670.175 611.908 671.74C610.444 675.652 604.1 673.044 604.1 668.48C604.1 663.916 610.444 661.308 611.908 665.22ZM622.4 664.568C622.4 665.22 621.912 665.872 621.18 665.872C620.57 665.872 619.96 667.567 619.96 669.784C619.96 671.87 619.472 673.696 618.74 673.696C618.13 673.696 617.52 671.87 617.52 669.784C617.52 667.567 617.032 665.872 616.3 665.872C615.69 665.872 615.08 665.22 615.08 664.568C615.08 663.786 616.788 663.264 618.74 663.264C620.814 663.264 622.4 663.786 622.4 664.568ZM628.5 668.48C628.5 671.349 628.012 673.696 627.28 673.696C626.67 673.696 626.06 671.349 626.06 668.48C626.06 665.611 626.67 663.264 627.28 663.264C628.012 663.264 628.5 665.611 628.5 668.48ZM639.48 665.872C641.188 669.262 639.114 673.696 635.82 673.696C632.526 673.696 630.452 669.262 632.16 665.872C632.892 664.438 634.478 663.264 635.82 663.264C637.162 663.264 638.748 664.438 639.48 665.872ZM647.532 665.481C649.118 667.698 649.118 667.698 649.24 665.481C649.24 660.656 651.68 663.525 651.68 668.48C651.68 674.478 651.07 674.87 647.898 670.697L645.702 667.828L645.58 670.697C645.58 672.392 645.092 673.696 644.36 673.696C643.75 673.696 643.14 671.349 643.14 668.48C643.14 662.873 644.848 661.699 647.532 665.481ZM662.66 665.481C662.782 667.698 662.782 667.698 664.368 665.481C666.564 662.482 667.54 662.612 667.662 666.133V669.132L669.004 666.133C671.078 661.569 672.298 662.742 670.956 668.089C669.37 674.478 669.126 674.609 666.93 671.61C665.344 669.393 665.222 669.393 665.1 671.349C665.1 675.13 663.026 674.087 661.562 669.654C659.854 664.568 659.854 663.264 661.44 663.264C662.172 663.264 662.66 664.307 662.66 665.481ZM681.57 664.568C681.204 665.22 679.862 665.872 678.764 666.002C677.056 666.002 677.178 666.263 679.13 667.176C681.204 668.089 681.204 668.35 679.496 668.35C676.934 668.48 676.568 671.088 679.008 671.088C679.984 671.088 681.204 671.61 681.57 672.392C682.058 673.174 680.716 673.696 678.642 673.696C675.104 673.696 674.86 673.435 674.86 668.48C674.86 663.525 675.104 663.264 678.642 663.264C680.716 663.264 682.058 663.786 681.57 664.568ZM692.55 668.48C692.55 672.522 692.184 673.044 689.256 673.435C685.962 673.826 685.84 673.566 685.84 668.48C685.84 663.394 685.962 663.134 689.256 663.525C692.184 663.916 692.55 664.438 692.55 668.48ZM708.41 668.48C708.41 672.522 708.044 673.044 705.116 673.435C701.822 673.826 701.7 673.566 701.7 668.48C701.7 663.394 701.822 663.134 705.116 663.525C708.044 663.916 708.41 664.438 708.41 668.48ZM718.902 664.829C719.024 665.742 718.902 667.046 718.78 667.828C718.536 668.48 718.536 670.175 718.536 671.349C718.658 674.087 716.828 674.478 715.852 672.001C715.242 670.697 714.998 670.697 714.388 672.001C712.924 675.391 711.46 673.566 711.46 668.48C711.46 663.525 711.704 663.264 715.12 663.264C717.194 663.264 718.902 664.046 718.902 664.829ZM729.028 666.394C729.394 668.089 730.004 670.306 730.37 671.349C730.858 672.653 729.882 673.174 726.71 673.174C723.538 673.174 722.562 672.653 723.05 671.349C723.416 670.306 724.026 668.089 724.392 666.394C725.368 662.351 728.052 662.351 729.028 666.394ZM737.08 668.48C737.08 671.349 736.592 673.696 735.86 673.696C735.25 673.696 734.64 671.349 734.64 668.48C734.64 665.611 735.25 663.264 735.86 663.264C736.592 663.264 737.08 665.611 737.08 668.48ZM744.766 666.133L746.718 669.132V666.133C746.84 660.917 749.28 663.134 749.28 668.48C749.28 674.348 747.938 675.13 745.132 670.827L743.18 667.958V670.827C743.18 672.392 742.692 673.696 741.96 673.696C741.35 673.696 740.74 671.349 740.74 668.48C740.74 662.612 741.96 661.83 744.766 666.133ZM763.92 664.568C763.92 665.22 763.432 665.872 762.7 665.872C762.09 665.872 761.48 667.567 761.48 669.784C761.48 671.87 760.992 673.696 760.26 673.696C759.65 673.696 759.04 671.87 759.04 669.784C759.04 667.567 758.552 665.872 757.82 665.872C757.21 665.872 756.6 665.22 756.6 664.568C756.6 663.786 758.308 663.264 760.26 663.264C762.334 663.264 763.92 663.786 763.92 664.568ZM770.02 667.176C770.02 669.262 770.63 671.088 771.24 671.088C771.972 671.088 772.46 669.262 772.46 667.176C772.46 664.959 773.07 663.264 773.802 663.264C774.534 663.264 774.9 665.35 774.656 668.089C774.29 672.392 773.924 673.044 771.24 673.044C768.556 673.044 768.19 672.392 767.824 668.089C767.58 665.35 767.946 663.264 768.678 663.264C769.41 663.264 770.02 664.959 770.02 667.176ZM782.708 666.133L783.562 669.132L784.66 666.133C786.49 661.569 788.32 662.742 788.32 668.48C788.32 671.349 787.832 673.696 787.1 673.696C786.49 673.696 785.88 672.914 785.758 672.001C785.758 670.697 785.514 670.697 785.026 672.001C784.172 674.478 782.22 674.087 782.098 671.349C781.976 669.262 781.854 669.262 781.366 671.349C780.39 675.652 778.56 673.696 778.56 668.48C778.56 662.612 781.366 661.178 782.708 666.133ZM800.52 665.872C802.228 669.262 800.154 673.696 796.86 673.696C795.518 673.696 793.932 672.522 793.2 671.088C791.492 667.698 793.566 663.264 796.86 663.264C798.202 663.264 799.788 664.438 800.52 665.872ZM811.134 668.741C811.256 674.218 810.768 674.739 808.328 671.349C806.742 669.262 806.742 669.262 806.62 671.349C806.62 676.304 804.18 673.435 804.18 668.35C804.18 663.394 804.302 663.134 807.596 663.525C810.524 663.916 810.89 664.438 811.134 668.741ZM822.48 665.22C822.48 666.263 823.334 667.176 824.31 667.176C825.286 667.176 826.14 666.263 826.14 665.22C826.14 664.177 826.75 663.264 827.36 663.264C828.092 663.264 828.58 665.611 828.58 668.48C828.58 671.349 828.092 673.696 827.36 673.696C826.75 673.696 826.14 672.522 826.14 671.088C826.14 669.654 825.286 668.48 824.31 668.48C823.334 668.48 822.48 669.654 822.48 671.088C822.48 672.522 821.992 673.696 821.26 673.696C820.65 673.696 820.04 671.349 820.04 668.48C820.04 665.611 820.65 663.264 821.26 663.264C821.992 663.264 822.48 664.177 822.48 665.22ZM834.68 667.176C834.68 669.784 835.29 671.088 836.51 671.088C837.73 671.088 838.34 669.784 838.34 667.176C838.34 664.959 838.95 663.264 839.56 663.264C841.268 663.264 841.024 668.871 839.194 671.61C836.51 675.652 832.85 673.696 832.484 668.089C832.24 665.35 832.606 663.264 833.338 663.264C834.07 663.264 834.68 664.959 834.68 667.176ZM847.734 666.785L848.466 670.436L849.686 666.785C851.394 661.308 854.2 662.351 854.2 668.48C854.2 673.826 851.76 676.043 851.638 670.697V667.828L850.54 670.697C849.93 672.392 849.076 673.696 848.71 673.696C848.344 673.696 847.49 672.392 846.88 670.697L845.782 667.828V670.697C845.66 676.043 843.22 673.826 843.22 668.48C843.22 662.351 846.392 661.178 847.734 666.785ZM863.838 667.306C865.668 673.044 865.668 673.174 861.032 673.174C858.714 673.174 857.128 672.522 857.372 671.74C860.544 661.83 861.764 661.047 863.838 667.306ZM872.988 666.133L874.94 669.002V666.133C874.94 664.568 875.55 663.264 876.16 663.264C876.892 663.264 877.38 665.611 877.38 668.48C877.38 674.348 876.16 675.13 873.354 670.697L871.402 667.828V670.697C871.28 676.043 868.84 673.826 868.84 668.48C868.84 662.612 870.182 661.83 872.988 666.133Z" fill="black"/>
<path d="M801.74 548.512C800.52 549.294 799.788 552.815 799.544 559.466L799.056 569.376H803.448H807.84V560.9C807.84 556.075 807.352 552.424 806.62 552.424C806.01 552.424 805.4 551.642 805.4 550.598C805.4 547.99 803.814 547.078 801.74 548.512Z" fill="black"/>
<path d="M799.3 589.457C799.3 600.802 800.642 607.192 803.082 607.192C803.814 607.192 804.668 606.018 805.034 604.584C805.4 603.149 806.132 601.976 806.742 601.976C807.352 601.976 807.84 596.629 807.84 590.24V578.504H803.57H799.3V589.457Z" fill="black"/>
<path d="M629.72 577.07C629.72 599.89 629.842 601.976 631.916 601.976C636.918 601.846 637.162 600.802 636.796 576.418L636.43 553.076L633.136 552.685L629.72 552.294V577.07Z" fill="black"/>
<path d="M713.046 570.55C711.948 579.808 711.826 583.329 712.924 584.633C714.022 586.198 714.51 586.198 715.974 584.763C717.316 583.329 717.316 580.851 715.974 570.68L714.388 558.292L713.046 570.55Z" fill="black"/>
<path d="M565.06 668.48C565.06 670.175 565.67 671.088 566.646 670.697C567.378 670.436 568.11 669.393 568.11 668.48C568.11 667.567 567.378 666.524 566.646 666.133C565.67 665.872 565.06 666.785 565.06 668.48Z" fill="black"/>
<path d="M633.868 667.306C632.648 669.523 635.454 672.001 637.162 670.175C638.626 668.61 637.65 665.872 635.82 665.872C635.21 665.872 634.356 666.524 633.868 667.306Z" fill="black"/>
<path d="M687.942 670.837C687.72 671.857 688.204 672.496 688.884 672.244C689.71 671.891 690.143 671.052 689.925 670.336C689.242 668.318 688.444 668.544 687.942 670.837Z" fill="black"/>
<path d="M704.14 670.567C704.14 671.61 704.75 672.131 705.36 671.74C706.092 671.219 706.336 670.306 705.97 669.654C704.872 667.828 704.14 668.219 704.14 670.567Z" fill="black"/>
<path d="M704.361 665.979C704.072 666.981 704.514 667.651 705.208 667.444C706.056 667.146 706.543 666.336 706.372 665.609C705.823 663.55 705.011 663.724 704.361 665.979Z" fill="black"/>
<path d="M688.361 665.979C688.072 666.981 688.514 667.651 689.208 667.444C690.056 667.146 690.543 666.336 690.372 665.609C689.823 663.55 689.011 663.724 688.361 665.979Z" fill="black"/>
<path d="M714.51 666.002C713.29 667.958 714.876 669.262 716.462 667.567C717.316 666.654 717.316 665.872 716.584 665.35C715.852 664.959 714.876 665.22 714.51 666.002Z" fill="black"/>
<path d="M794.908 667.306C793.688 669.523 796.494 672.001 798.202 670.175C799.666 668.61 798.69 665.872 796.86 665.872C796.25 665.872 795.396 666.524 794.908 667.306Z" fill="black"/>
<path d="M806.62 666.394C806.62 667.567 807.23 668.48 807.84 668.48C808.572 668.48 809.06 667.958 809.06 667.306C809.06 666.524 808.572 665.611 807.84 665.22C807.23 664.829 806.62 665.35 806.62 666.394Z" fill="black"/>
</svg>
