<svg width="1440" height="1024" viewBox="0 0 1440 1024" fill="none" xmlns="http://www.w3.org/2000/svg">
<rect width="1440" height="1024" fill="white"/>
<path d="M711.245 536.484C769.806 536.484 817.449 482.593 817.449 416.352C817.449 350.111 769.806 296.219 711.245 296.219C652.681 296.219 605.047 350.111 605.047 416.352C605.047 482.593 652.681 536.484 711.245 536.484Z" fill="#4F7FC9"/>
<path d="M711.244 308.452C763.845 308.452 806.634 356.856 806.634 416.352C806.634 475.847 763.845 524.249 711.244 524.249C658.647 524.249 615.857 475.847 615.857 416.352C615.857 356.856 658.647 308.452 711.244 308.452Z" fill="#67CCF4"/>
<path d="M711.245 361.258C738.103 361.258 759.951 385.971 759.951 416.352C759.951 446.729 738.103 471.442 711.245 471.442C684.39 471.442 662.542 446.729 662.542 416.352C662.542 385.971 684.39 361.258 711.245 361.258Z" fill="#5C5D5F"/>
<path d="M892.066 360.875C892.066 357.135 883.656 348.62 881.721 346.058C874.692 336.787 867.128 328.013 859.197 319.72C842.835 302.595 824.787 287.291 805.442 274.72C774.303 254.469 738.483 241.878 702.441 241.045C677.242 240.464 653.738 245.511 629.973 255.198C589.187 271.832 556.104 308.925 530.116 346.891C524.98 354.395 520.409 362.423 515.633 370.223C512.668 375.055 515.579 373.591 517.91 370.274C530.335 352.602 542.993 335.505 557.568 320.022C586.958 288.772 624.591 262.336 665.452 257.122C724.247 249.621 779.1 276.022 828.435 310.798C842.342 320.61 855.819 331.197 868.88 342.391C871.89 344.97 889.816 363.76 892.066 360.875" fill="#5C5D5F"/>
<path d="M774.659 352.807L779.1 348.351C761.862 326.372 737.132 313.763 711.245 313.763C700.175 313.763 689.356 316.003 679.082 320.425L681.192 326.704C690.789 322.571 700.903 320.479 711.245 320.479C735.431 320.479 758.549 332.261 774.659 352.807ZM626.517 414.032C627.093 386.69 638.067 360.839 656.626 343.1L652.794 337.973C632.938 356.947 621.198 384.611 620.58 413.871L626.517 414.032ZM792.541 461.805C798.774 447.589 801.938 432.298 801.938 416.352C801.938 402.978 799.685 389.96 795.242 377.661L789.744 380.199C793.897 391.689 796.002 403.854 796.002 416.352C796.002 431.253 793.048 445.541 787.224 458.82L792.541 461.805ZM675.024 510.398L677.402 504.247C655.168 493.254 638.121 472.009 630.629 445.97L624.98 448.049C633.003 475.911 651.241 498.636 675.024 510.398ZM711.245 518.937C735.025 518.937 757.513 508.565 774.567 489.728L770.423 484.923C754.48 502.528 733.463 512.222 711.245 512.222C709.202 512.222 707.133 512.141 705.106 511.973L704.681 518.672C706.851 518.85 709.06 518.937 711.245 518.937" fill="#4F7FC9"/>
<path d="M741.208 350.208L746.611 338.251C735.66 331.919 723.392 328.568 711.138 328.568C700.125 328.568 689.424 331.183 679.335 336.331L681.579 342.556L684.046 348.667L684.333 348.516C692.764 344.211 701.82 341.999 711.138 341.999C721.522 341.999 731.92 344.839 741.208 350.208V350.208ZM634.126 426.17L645.922 424.672C645.655 421.969 645.518 419.209 645.518 416.473C645.518 396.857 652.536 377.651 664.763 363.777L656.356 354.295C641.921 370.667 633.645 393.328 633.645 416.473C633.645 419.706 633.805 422.97 634.126 426.17V426.17ZM787.857 430.219C788.513 425.602 788.848 420.895 788.848 416.231C788.848 403.771 786.539 391.663 781.988 380.253C778.619 371.798 774.128 364.059 768.636 357.249L759.865 366.302C764.507 372.06 768.31 378.611 771.165 385.777C775.018 395.44 776.975 405.688 776.975 416.231C776.975 420.18 776.69 424.169 776.132 428.08L787.857 430.219ZM695.619 502.31L698.027 489.157C678.284 484.537 661.753 470.297 652.672 450.09L642.084 456.178C652.812 480.041 672.326 496.857 695.619 502.31ZM723.318 503.075C730.142 501.863 736.818 499.607 743.158 496.37C758.232 488.677 770.509 476.019 778.666 459.761L768.339 453.129C761.432 466.896 751.037 477.614 738.275 484.128C732.903 486.871 727.251 488.781 721.474 489.809L723.318 503.075" fill="#93DCEA"/>
<path d="M711.245 361.409L711.248 371.496C701.161 371.657 691.11 376.055 683.431 384.745C675.458 393.757 671.569 405.65 671.721 417.493L662.804 417.49C662.652 403.068 667.411 388.593 677.12 377.61C686.542 366.953 698.876 361.574 711.245 361.409" fill="white"/>
<path d="M711.245 334.93L711.248 347.538C695.735 347.699 680.261 354.435 668.45 367.799C656.344 381.485 650.387 399.516 650.535 417.493H639.392C639.24 396.286 646.287 375.025 660.559 358.877C674.55 343.056 692.874 335.091 711.245 334.93" fill="white"/>
<path d="M644.004 340.148C662.551 319.166 686.877 308.616 711.245 308.451V323.581C690.308 323.745 669.408 332.815 653.468 350.849C637.23 369.209 629.21 393.378 629.361 417.493H615.982C615.843 389.503 625.161 361.459 644.004 340.148Z" fill="white"/>
<path d="M514.582 394.181C516.681 393.674 519.875 401.182 521.056 403.146C526.803 412.712 532.52 422.178 538.653 431.428C550.666 449.533 563.445 468.162 578.622 483.063C609.58 513.461 643.286 536.908 684.485 543.852C727.981 551.188 773.76 538.567 813.545 519.001C846.875 503.351 879.296 481.989 907.341 456.215C853.874 395.212 790.041 338.329 714.525 319.438C680.982 311.047 643.132 314.573 611.183 328.796C591.633 337.493 573.196 348.056 555.442 360.778C541.214 370.976 528.24 383.08 514.582 394.181C537.477 359.204 564.715 330.623 598.514 309.563C638.21 284.827 686.791 279.757 730.433 292.069C774.529 304.513 814.679 333.104 847.24 368.505C863.317 385.988 878.15 405.094 890.959 425.777C896.26 434.35 901.321 443.17 905.795 452.334C907.828 456.504 909.182 456.88 906.062 459.983C845.533 520.217 760.037 570.388 677.266 558.122C656.142 554.989 636.848 548.139 617.586 537.999C598.499 527.949 582.695 511.832 567.874 495.299C554.385 480.253 542.509 461.084 533.553 442.284C528.519 431.704 523.775 421.207 519.581 410.161C518.646 407.719 512.786 395.978 514.582 394.181" fill="#5C5D5F"/>
<path d="M711.245 358.115C739.632 358.115 762.729 384.242 762.729 416.352C762.729 448.462 739.632 474.585 711.245 474.585C682.858 474.585 659.763 448.462 659.763 416.352C659.763 384.242 682.858 358.115 711.245 358.115ZM711.245 481.3C742.906 481.3 768.666 452.165 768.666 416.352C768.666 380.538 742.906 351.4 711.245 351.4C679.584 351.4 653.827 380.538 653.827 416.352C653.827 452.165 679.584 481.3 711.245 481.3Z" fill="#4F7FC9"/>
<path d="M719.501 654C566.798 654 443 642.725 443 628.817C443 614.909 566.798 603.634 719.501 603.634C872.208 603.634 996 614.909 996 628.817C996 642.725 872.208 654 719.501 654" fill="url(#paint0_radial_508_79)"/>
<path d="M519.38 687.09C520.34 686.13 521.1 685 521.66 683.7C522.24 682.4 522.53 681.01 522.53 679.53C522.53 678.05 522.24 676.66 521.66 675.36C521.1 674.04 520.34 672.89 519.38 671.91C518.4 670.95 517.25 670.19 515.93 669.63C514.63 669.05 513.24 668.76 511.76 668.76C510.28 668.76 508.89 669.05 507.59 669.63C506.29 670.19 505.16 670.95 504.2 671.91C503.22 672.89 502.45 674.04 501.89 675.36C501.33 676.66 501.05 678.05 501.05 679.53C501.05 681.01 501.33 682.4 501.89 683.7C502.45 685 503.22 686.13 504.2 687.09C505.16 688.07 506.29 688.84 507.59 689.4C508.89 689.96 510.28 690.24 511.76 690.24C513.24 690.24 514.63 689.96 515.93 689.4C517.25 688.84 518.4 688.07 519.38 687.09ZM505.07 686.25C504.21 685.41 503.53 684.41 503.03 683.25C502.53 682.09 502.28 680.86 502.28 679.56C502.28 678.24 502.53 677 503.03 675.84C503.53 674.66 504.21 673.64 505.07 672.78C505.93 671.92 506.93 671.24 508.07 670.74C509.23 670.22 510.46 669.96 511.76 669.96C513.08 669.96 514.31 670.22 515.45 670.74C516.61 671.24 517.63 671.92 518.51 672.78C519.37 673.66 520.05 674.68 520.55 675.84C521.05 676.98 521.3 678.21 521.3 679.53C521.3 680.85 521.05 682.09 520.55 683.25C520.05 684.39 519.37 685.39 518.51 686.25C517.63 687.13 516.6 687.82 515.42 688.32C514.26 688.82 513.02 689.07 511.7 689.07C510.42 689.07 509.2 688.82 508.04 688.32C506.9 687.82 505.91 687.13 505.07 686.25ZM530.664 690V688.83H527.694V680.1H531.024C533.064 680.1 534.634 679.6 535.734 678.6C536.834 677.58 537.384 676.21 537.384 674.49C537.384 673.51 537.164 672.67 536.724 671.97C536.284 671.27 535.744 670.7 535.104 670.26C534.464 669.82 533.764 669.5 533.004 669.3C532.264 669.1 531.584 669 530.964 669H524.634V670.17H526.464V688.83H524.634V690H530.664ZM527.694 670.17H530.844C531.604 670.17 532.304 670.29 532.944 670.53C533.584 670.77 534.154 671.08 534.654 671.46C535.114 671.86 535.474 672.32 535.734 672.84C536.014 673.36 536.154 673.91 536.154 674.49C536.154 674.97 536.074 675.47 535.914 675.99C535.754 676.51 535.474 676.98 535.074 677.4C534.654 677.84 534.094 678.21 533.394 678.51C532.714 678.79 531.854 678.93 530.814 678.93H527.694V670.17ZM550.738 690V688.83H548.398V670.17H554.908V673.62H556.077V669H539.488V673.62H540.658V670.17H547.168V688.83H544.708V690H550.738ZM564.209 690V688.83H561.749V670.17H564.209V669H558.179V670.17H560.519V688.83H558.179V690H564.209ZM582.493 688.74L581.803 687.75C581.083 688.17 580.313 688.5 579.493 688.74C578.693 688.96 577.853 689.07 576.973 689.07C575.673 689.07 574.453 688.82 573.313 688.32C572.173 687.8 571.183 687.11 570.343 686.25C569.483 685.41 568.803 684.41 568.303 683.25C567.803 682.09 567.553 680.86 567.553 679.56C567.553 678.24 567.803 677 568.303 675.84C568.803 674.66 569.483 673.64 570.343 672.78C571.203 671.9 572.203 671.21 573.343 670.71C574.483 670.19 575.713 669.93 577.033 669.93C577.793 669.93 578.533 670.03 579.253 670.23C579.993 670.41 580.693 670.67 581.353 671.01V673.62H582.523V670.26C581.703 669.78 580.833 669.41 579.913 669.15C579.013 668.89 578.053 668.76 577.033 668.76C575.553 668.76 574.163 669.05 572.863 669.63C571.563 670.19 570.433 670.95 569.473 671.91C568.493 672.89 567.723 674.04 567.163 675.36C566.603 676.66 566.323 678.05 566.323 679.53C566.323 681.01 566.603 682.4 567.163 683.7C567.723 685 568.493 686.13 569.473 687.09C570.433 688.07 571.563 688.84 572.863 689.4C574.163 689.96 575.553 690.24 577.033 690.24C578.053 690.24 579.013 690.11 579.913 689.85C580.833 689.57 581.693 689.2 582.493 688.74ZM590.424 690V688.83H588.204C588.824 687.39 589.384 686.08 589.884 684.9C590.384 683.72 590.934 682.41 591.534 680.97H599.994C600.554 682.29 601.104 683.6 601.644 684.9C602.204 686.2 602.764 687.51 603.324 688.83H601.134V690H606.894V688.83H604.584C603.104 685.33 601.624 681.87 600.144 678.45C598.684 675.01 597.224 671.54 595.764 668.04C594.304 671.54 592.834 675.01 591.354 678.45C589.874 681.87 588.404 685.33 586.944 688.83H584.634V690H590.424ZM595.464 671.64C595.524 671.48 595.574 671.34 595.614 671.22C595.674 671.1 595.724 670.95 595.764 670.77L596.034 671.64L599.484 679.8H592.044C592.604 678.46 593.174 677.11 593.754 675.75C594.354 674.37 594.924 673 595.464 671.64ZM623.92 690V685.38H622.75V688.83H612.28V670.17H614.77V669H608.98V670.17H611.05V688.83H608.98V690H623.92ZM639.045 686.25C638.185 685.41 637.505 684.41 637.005 683.25C636.505 682.09 636.255 680.86 636.255 679.56C636.255 678.24 636.505 677 637.005 675.84C637.505 674.66 638.185 673.64 639.045 672.78C639.905 671.9 640.905 671.21 642.045 670.71C643.185 670.19 644.415 669.93 645.735 669.93C647.055 669.93 648.285 670.19 649.425 670.71C650.585 671.21 651.595 671.9 652.455 672.78C653.315 673.64 653.995 674.65 654.495 675.81C655.015 676.97 655.275 678.21 655.275 679.53C655.275 680.85 655.015 682.09 654.495 683.25C653.995 684.41 653.315 685.41 652.455 686.25C651.575 687.11 650.555 687.8 649.395 688.32C648.235 688.82 646.995 689.07 645.675 689.07C644.375 689.07 643.155 688.82 642.015 688.32C640.875 687.8 639.885 687.11 639.045 686.25ZM647.955 690H657.165V688.83H650.745C651.545 688.43 652.285 687.94 652.965 687.36C653.665 686.78 654.255 686.11 654.735 685.35C655.295 684.53 655.725 683.63 656.025 682.65C656.345 681.65 656.505 680.61 656.505 679.53C656.505 678.05 656.215 676.66 655.635 675.36C655.075 674.04 654.315 672.89 653.355 671.91C652.375 670.95 651.225 670.19 649.905 669.63C648.605 669.05 647.215 668.76 645.735 668.76C644.255 668.76 642.865 669.05 641.565 669.63C640.265 670.19 639.135 670.95 638.175 671.91C637.195 672.89 636.425 674.04 635.865 675.36C635.305 676.66 635.025 678.05 635.025 679.53C635.025 681.01 635.305 682.4 635.865 683.7C636.425 685 637.195 686.13 638.175 687.09C639.135 688.07 640.265 688.84 641.565 689.4C642.865 689.96 644.255 690.24 645.735 690.24C646.095 690.24 646.455 690.22 646.815 690.18C647.195 690.14 647.575 690.08 647.955 690ZM673.653 688.44C674.293 687.86 674.793 687.13 675.153 686.25C675.533 685.37 675.723 684.36 675.723 683.22V670.17H678.033V669H672.003V670.17H674.493V683.13C674.493 684.09 674.343 684.94 674.043 685.68C673.743 686.4 673.333 687.01 672.813 687.51C672.293 688.03 671.673 688.42 670.953 688.68C670.233 688.94 669.463 689.07 668.643 689.07C667.783 689.07 666.993 688.94 666.273 688.68C665.553 688.42 664.943 688.03 664.443 687.51C663.923 687.01 663.513 686.4 663.213 685.68C662.933 684.94 662.793 684.09 662.793 683.13V670.17H665.283V669H659.253V670.17H661.563V683.22C661.563 684.36 661.743 685.37 662.103 686.25C662.463 687.13 662.953 687.86 663.573 688.44C664.213 689.04 664.963 689.49 665.823 689.79C666.683 690.09 667.623 690.24 668.643 690.24C669.643 690.24 670.573 690.09 671.433 689.79C672.293 689.49 673.033 689.04 673.653 688.44ZM685.932 690V688.83H683.712C684.332 687.39 684.892 686.08 685.392 684.9C685.892 683.72 686.442 682.41 687.042 680.97H695.502C696.062 682.29 696.612 683.6 697.152 684.9C697.712 686.2 698.272 687.51 698.832 688.83H696.642V690H702.402V688.83H700.092C698.612 685.33 697.132 681.87 695.652 678.45C694.192 675.01 692.732 671.54 691.272 668.04C689.812 671.54 688.342 675.01 686.862 678.45C685.382 681.87 683.912 685.33 682.452 688.83H680.142V690H685.932ZM690.972 671.64C691.032 671.48 691.082 671.34 691.122 671.22C691.182 671.1 691.232 670.95 691.272 670.77L691.542 671.64L694.992 679.8H687.552C688.112 678.46 688.682 677.11 689.262 675.75C689.862 674.37 690.432 673 690.972 671.64ZM719.428 690V685.38H718.258V688.83H707.788V670.17H710.278V669H704.488V670.17H706.558V688.83H704.488V690H719.428ZM727.568 690V688.83H725.108V670.17H727.568V669H721.538V670.17H723.878V688.83H721.538V690H727.568ZM740.933 690V688.83H738.593V670.17H745.103V673.62H746.273V669H729.683V673.62H730.853V670.17H737.363V688.83H734.903V690H740.933ZM761.574 690V688.83H759.234V682.05C760.414 680.07 761.594 678.1 762.774 676.14C763.954 674.16 765.124 672.17 766.284 670.17H768.654V669H762.624V670.17H764.784L758.874 680.13L758.544 680.97H758.514L758.154 680.13C757.174 678.47 756.184 676.82 755.184 675.18C754.204 673.52 753.204 671.85 752.184 670.17H754.404V669H748.374V670.17H750.684C751.884 672.15 753.064 674.13 754.224 676.11C755.404 678.09 756.594 680.07 757.794 682.05V688.83H755.574V690H761.574ZM795.921 688.74L795.231 687.75C794.511 688.17 793.741 688.5 792.921 688.74C792.121 688.96 791.281 689.07 790.401 689.07C789.101 689.07 787.881 688.82 786.741 688.32C785.601 687.8 784.611 687.11 783.771 686.25C782.911 685.41 782.231 684.41 781.731 683.25C781.231 682.09 780.981 680.86 780.981 679.56C780.981 678.24 781.231 677 781.731 675.84C782.231 674.66 782.911 673.64 783.771 672.78C784.631 671.9 785.631 671.21 786.771 670.71C787.911 670.19 789.141 669.93 790.461 669.93C791.221 669.93 791.961 670.03 792.681 670.23C793.421 670.41 794.121 670.67 794.781 671.01V673.62H795.951V670.26C795.131 669.78 794.261 669.41 793.341 669.15C792.441 668.89 791.481 668.76 790.461 668.76C788.981 668.76 787.591 669.05 786.291 669.63C784.991 670.19 783.861 670.95 782.901 671.91C781.921 672.89 781.151 674.04 780.591 675.36C780.031 676.66 779.751 678.05 779.751 679.53C779.751 681.01 780.031 682.4 780.591 683.7C781.151 685 781.921 686.13 782.901 687.09C783.861 688.07 784.991 688.84 786.291 689.4C787.591 689.96 788.981 690.24 790.461 690.24C791.481 690.24 792.441 690.11 793.341 689.85C794.261 689.57 795.121 689.2 795.921 688.74ZM816.392 687.09C817.352 686.13 818.112 685 818.672 683.7C819.252 682.4 819.542 681.01 819.542 679.53C819.542 678.05 819.252 676.66 818.672 675.36C818.112 674.04 817.352 672.89 816.392 671.91C815.412 670.95 814.262 670.19 812.942 669.63C811.642 669.05 810.252 668.76 808.772 668.76C807.292 668.76 805.902 669.05 804.602 669.63C803.302 670.19 802.172 670.95 801.212 671.91C800.232 672.89 799.462 674.04 798.902 675.36C798.342 676.66 798.062 678.05 798.062 679.53C798.062 681.01 798.342 682.4 798.902 683.7C799.462 685 800.232 686.13 801.212 687.09C802.172 688.07 803.302 688.84 804.602 689.4C805.902 689.96 807.292 690.24 808.772 690.24C810.252 690.24 811.642 689.96 812.942 689.4C814.262 688.84 815.412 688.07 816.392 687.09ZM802.082 686.25C801.222 685.41 800.542 684.41 800.042 683.25C799.542 682.09 799.292 680.86 799.292 679.56C799.292 678.24 799.542 677 800.042 675.84C800.542 674.66 801.222 673.64 802.082 672.78C802.942 671.92 803.942 671.24 805.082 670.74C806.242 670.22 807.472 669.96 808.772 669.96C810.092 669.96 811.322 670.22 812.462 670.74C813.622 671.24 814.642 671.92 815.522 672.78C816.382 673.66 817.062 674.68 817.562 675.84C818.062 676.98 818.312 678.21 818.312 679.53C818.312 680.85 818.062 682.09 817.562 683.25C817.062 684.39 816.382 685.39 815.522 686.25C814.642 687.13 813.612 687.82 812.432 688.32C811.272 688.82 810.032 689.07 808.712 689.07C807.432 689.07 806.212 688.82 805.052 688.32C803.912 687.82 802.922 687.13 802.082 686.25ZM842.406 670.17H844.926V669H838.896V670.17H841.176V687.24L841.266 688.2L840.696 687.42L824.886 669H821.646V670.17H824.076V688.83H821.646V690H827.676V688.83H825.306V671.94L825.246 671.07L825.786 671.76L842.406 690.96V670.17ZM858.267 690V688.83H855.927V670.17H862.437V673.62H863.607V669H847.017V673.62H848.187V670.17H854.697V688.83H852.237V690H858.267ZM871.738 690V688.83H868.768V680.1H871.288C871.548 680.1 871.778 680.1 871.978 680.1C872.198 680.08 872.428 680.06 872.668 680.04L877.378 690H880.768V688.83H878.128L873.958 679.95C875.418 679.65 876.528 679.02 877.288 678.06C878.068 677.1 878.458 675.91 878.458 674.49C878.458 673.51 878.238 672.67 877.798 671.97C877.358 671.27 876.818 670.7 876.178 670.26C875.538 669.82 874.838 669.5 874.078 669.3C873.338 669.1 872.658 669 872.038 669H865.708V670.17H867.538V688.83H865.708V690H871.738ZM868.768 670.17H871.918C872.678 670.17 873.378 670.29 874.018 670.53C874.658 670.77 875.228 671.08 875.728 671.46C876.188 671.86 876.548 672.32 876.808 672.84C877.088 673.36 877.228 673.91 877.228 674.49C877.228 674.97 877.148 675.47 876.988 675.99C876.828 676.51 876.548 676.98 876.148 677.4C875.728 677.84 875.168 678.21 874.468 678.51C873.788 678.79 872.928 678.93 871.888 678.93H868.768V670.17ZM901.206 687.09C902.166 686.13 902.926 685 903.486 683.7C904.066 682.4 904.356 681.01 904.356 679.53C904.356 678.05 904.066 676.66 903.486 675.36C902.926 674.04 902.166 672.89 901.206 671.91C900.226 670.95 899.076 670.19 897.756 669.63C896.456 669.05 895.066 668.76 893.586 668.76C892.106 668.76 890.716 669.05 889.416 669.63C888.116 670.19 886.986 670.95 886.026 671.91C885.046 672.89 884.276 674.04 883.716 675.36C883.156 676.66 882.876 678.05 882.876 679.53C882.876 681.01 883.156 682.4 883.716 683.7C884.276 685 885.046 686.13 886.026 687.09C886.986 688.07 888.116 688.84 889.416 689.4C890.716 689.96 892.106 690.24 893.586 690.24C895.066 690.24 896.456 689.96 897.756 689.4C899.076 688.84 900.226 688.07 901.206 687.09ZM886.896 686.25C886.036 685.41 885.356 684.41 884.856 683.25C884.356 682.09 884.106 680.86 884.106 679.56C884.106 678.24 884.356 677 884.856 675.84C885.356 674.66 886.036 673.64 886.896 672.78C887.756 671.92 888.756 671.24 889.896 670.74C891.056 670.22 892.286 669.96 893.586 669.96C894.906 669.96 896.136 670.22 897.276 670.74C898.436 671.24 899.456 671.92 900.336 672.78C901.196 673.66 901.876 674.68 902.376 675.84C902.876 676.98 903.126 678.21 903.126 679.53C903.126 680.85 902.876 682.09 902.376 683.25C901.876 684.39 901.196 685.39 900.336 686.25C899.456 687.13 898.426 687.82 897.246 688.32C896.086 688.82 894.846 689.07 893.526 689.07C892.246 689.07 891.026 688.82 889.866 688.32C888.726 687.82 887.736 687.13 886.896 686.25ZM921.4 690V685.38H920.23V688.83H909.76V670.17H912.25V669H906.46V670.17H908.53V688.83H906.46V690H921.4Z" fill="black"/>
<path d="M698.08 730V728.83H695.44V720.01H705.49V718.81H695.44V710.17H705.49V713.62H706.66V709H692.05V710.17H694.21V728.83H692.05V730H698.08ZM714.779 730V728.83H712.319V710.17H714.779V709H708.749V710.17H711.089V728.83H708.749V730H714.779ZM722.924 730V728.83H719.954V720.1H723.284C725.324 720.1 726.894 719.6 727.994 718.6C729.094 717.58 729.644 716.21 729.644 714.49C729.644 713.51 729.424 712.67 728.984 711.97C728.544 711.27 728.004 710.7 727.364 710.26C726.724 709.82 726.024 709.5 725.264 709.3C724.524 709.1 723.844 709 723.224 709H716.894V710.17H718.724V728.83H716.894V730H722.924ZM719.954 710.17H723.104C723.864 710.17 724.564 710.29 725.204 710.53C725.844 710.77 726.414 711.08 726.914 711.46C727.374 711.86 727.734 712.32 727.994 712.84C728.274 713.36 728.414 713.91 728.414 714.49C728.414 714.97 728.334 715.47 728.174 715.99C728.014 716.51 727.734 716.98 727.334 717.4C726.914 717.84 726.354 718.21 725.654 718.51C724.974 718.79 724.114 718.93 723.074 718.93H719.954V710.17Z" fill="black"/>
<defs>
<radialGradient id="paint0_radial_508_79" cx="0" cy="0" r="1" gradientUnits="userSpaceOnUse" gradientTransform="translate(719.499 628.817) scale(276.532 25.1811)">
<stop stop-color="#B0AFAE"/>
<stop offset="0.204301" stop-color="#B0AFAE"/>
<stop offset="1" stop-color="white"/>
</radialGradient>
</defs>
</svg>
